<?xml version="1.0" encoding="UTF-8" standalone="no"?>
<!DOCTYPE svg PUBLIC "-//W3C//DTD SVG 1.1//EN"
 "http://www.w3.org/Graphics/SVG/1.1/DTD/svg11.dtd">
<!-- Generated by graphviz version 2.43.0 (0)
 -->
<!-- Title: G Pages: 1 -->
<svg width="732pt" height="353pt"
 viewBox="0.00 0.00 732.20 353.20" xmlns="http://www.w3.org/2000/svg" xmlns:xlink="http://www.w3.org/1999/xlink">
<g id="graph0" class="graph" transform="scale(1 1) rotate(0) translate(21.6 331.6)">
<title>G</title>
<polygon fill="#111111" stroke="transparent" points="-21.6,21.6 -21.6,-331.6 710.6,-331.6 710.6,21.6 -21.6,21.6"/>
<!-- preactComponent/Init.jsx -->
<g id="node1" class="node">
<title>preactComponent/Init.jsx</title>
<path fill="none" stroke="#c6c5fe" d="M234.33,-64C234.33,-64 82.67,-64 82.67,-64 78.83,-64 75,-60.17 75,-56.33 75,-56.33 75,-48.67 75,-48.67 75,-44.83 78.83,-41 82.67,-41 82.67,-41 234.33,-41 234.33,-41 238.17,-41 242,-44.83 242,-48.67 242,-48.67 242,-56.33 242,-56.33 242,-60.17 238.17,-64 234.33,-64"/>
<text text-anchor="middle" x="158.5" y="-48.8" font-family="Arial" font-size="14.00" fill="#c6c5fe">preactComponent/Init.jsx</text>
</g>
<!-- preactComponent/components/PreactComponent.jsx -->
<g id="node2" class="node">
<title>preactComponent/components/PreactComponent.jsx</title>
<path fill="none" stroke="#cfffac" d="M681.33,-43C681.33,-43 360.67,-43 360.67,-43 356.83,-43 353,-39.17 353,-35.33 353,-35.33 353,-27.67 353,-27.67 353,-23.83 356.83,-20 360.67,-20 360.67,-20 681.33,-20 681.33,-20 685.17,-20 689,-23.83 689,-27.67 689,-27.67 689,-35.33 689,-35.33 689,-39.17 685.17,-43 681.33,-43"/>
<text text-anchor="middle" x="521" y="-27.8" font-family="Arial" font-size="14.00" fill="#cfffac">preactComponent/components/PreactComponent.jsx</text>
</g>
<!-- preactComponent/Init.jsx&#45;&gt;preactComponent/components/PreactComponent.jsx -->
<g id="edge1" class="edge">
<title>preactComponent/Init.jsx&#45;&gt;preactComponent/components/PreactComponent.jsx</title>
<path fill="none" stroke="#757575" d="M242.21,-47.68C272.19,-45.94 307.34,-43.89 342.35,-41.85"/>
<polygon fill="#757575" stroke="#757575" points="342.93,-45.32 352.71,-41.25 342.52,-38.33 342.93,-45.32"/>
</g>
<!-- preactComponent/preactComponent.args.js -->
<g id="node3" class="node">
<title>preactComponent/preactComponent.args.js</title>
<path fill="none" stroke="#cfffac" d="M290.83,-105C290.83,-105 26.17,-105 26.17,-105 22.33,-105 18.5,-101.17 18.5,-97.33 18.5,-97.33 18.5,-89.67 18.5,-89.67 18.5,-85.83 22.33,-82 26.17,-82 26.17,-82 290.83,-82 290.83,-82 294.67,-82 298.5,-85.83 298.5,-89.67 298.5,-89.67 298.5,-97.33 298.5,-97.33 298.5,-101.17 294.67,-105 290.83,-105"/>
<text text-anchor="middle" x="158.5" y="-89.8" font-family="Arial" font-size="14.00" fill="#cfffac">preactComponent/preactComponent.args.js</text>
</g>
<!-- preactComponent/preactComponent.ssr.bundle.js -->
<g id="node4" class="node">
<title>preactComponent/preactComponent.ssr.bundle.js</title>
<path fill="none" stroke="#cfffac" d="M308.33,-146C308.33,-146 8.67,-146 8.67,-146 4.83,-146 1,-142.17 1,-138.33 1,-138.33 1,-130.67 1,-130.67 1,-126.83 4.83,-123 8.67,-123 8.67,-123 308.33,-123 308.33,-123 312.17,-123 316,-126.83 316,-130.67 316,-130.67 316,-138.33 316,-138.33 316,-142.17 312.17,-146 308.33,-146"/>
<text text-anchor="middle" x="158.5" y="-130.8" font-family="Arial" font-size="14.00" fill="#cfffac">preactComponent/preactComponent.ssr.bundle.js</text>
</g>
<!-- preactComponent/preactComponent.ssr.jsx -->
<g id="node5" class="node">
<title>preactComponent/preactComponent.ssr.jsx</title>
<path fill="none" stroke="#c6c5fe" d="M289.83,-23C289.83,-23 27.17,-23 27.17,-23 23.33,-23 19.5,-19.17 19.5,-15.33 19.5,-15.33 19.5,-7.67 19.5,-7.67 19.5,-3.83 23.33,0 27.17,0 27.17,0 289.83,0 289.83,0 293.67,0 297.5,-3.83 297.5,-7.67 297.5,-7.67 297.5,-15.33 297.5,-15.33 297.5,-19.17 293.67,-23 289.83,-23"/>
<text text-anchor="middle" x="158.5" y="-7.8" font-family="Arial" font-size="14.00" fill="#c6c5fe">preactComponent/preactComponent.ssr.jsx</text>
</g>
<!-- preactComponent/preactComponent.ssr.jsx&#45;&gt;preactComponent/components/PreactComponent.jsx -->
<g id="edge2" class="edge">
<title>preactComponent/preactComponent.ssr.jsx&#45;&gt;preactComponent/components/PreactComponent.jsx</title>
<path fill="none" stroke="#757575" d="M297.59,-19.16C312.28,-19.98 327.36,-20.81 342.42,-21.65"/>
<polygon fill="#757575" stroke="#757575" points="342.66,-25.17 352.84,-22.23 343.05,-18.18 342.66,-25.17"/>
</g>
<!-- vanillaComponent/Init.js -->
<g id="node6" class="node">
<title>vanillaComponent/Init.js</title>
<path fill="none" stroke="#cfffac" d="M231.33,-187C231.33,-187 85.67,-187 85.67,-187 81.83,-187 78,-183.17 78,-179.33 78,-179.33 78,-171.67 78,-171.67 78,-167.83 81.83,-164 85.67,-164 85.67,-164 231.33,-164 231.33,-164 235.17,-164 239,-167.83 239,-171.67 239,-171.67 239,-179.33 239,-179.33 239,-183.17 235.17,-187 231.33,-187"/>
<text text-anchor="middle" x="158.5" y="-171.8" font-family="Arial" font-size="14.00" fill="#cfffac">vanillaComponent/Init.js</text>
</g>
<!-- vanillaComponent/vanillaComponent.args.js -->
<g id="node7" class="node">
<title>vanillaComponent/vanillaComponent.args.js</title>
<path fill="none" stroke="#cfffac" d="M291.33,-228C291.33,-228 25.67,-228 25.67,-228 21.83,-228 18,-224.17 18,-220.33 18,-220.33 18,-212.67 18,-212.67 18,-208.83 21.83,-205 25.67,-205 25.67,-205 291.33,-205 291.33,-205 295.17,-205 299,-208.83 299,-212.67 299,-212.67 299,-220.33 299,-220.33 299,-224.17 295.17,-228 291.33,-228"/>
<text text-anchor="middle" x="158.5" y="-212.8" font-family="Arial" font-size="14.00" fill="#cfffac">vanillaComponent/vanillaComponent.args.js</text>
</g>
<!-- vanillaComponent/vanillaComponent.ssr.bundle.js -->
<g id="node8" class="node">
<title>vanillaComponent/vanillaComponent.ssr.bundle.js</title>
<path fill="none" stroke="#cfffac" d="M309.33,-269C309.33,-269 7.67,-269 7.67,-269 3.83,-269 0,-265.17 0,-261.33 0,-261.33 0,-253.67 0,-253.67 0,-249.83 3.83,-246 7.67,-246 7.67,-246 309.33,-246 309.33,-246 313.17,-246 317,-249.83 317,-253.67 317,-253.67 317,-261.33 317,-261.33 317,-265.17 313.17,-269 309.33,-269"/>
<text text-anchor="middle" x="158.5" y="-253.8" font-family="Arial" font-size="14.00" fill="#cfffac">vanillaComponent/vanillaComponent.ssr.bundle.js</text>
</g>
<!-- vanillaComponent/vanillaComponent.ssr.js -->
<g id="node9" class="node">
<title>vanillaComponent/vanillaComponent.ssr.js</title>
<path fill="none" stroke="#cfffac" d="M286.83,-310C286.83,-310 30.17,-310 30.17,-310 26.33,-310 22.5,-306.17 22.5,-302.33 22.5,-302.33 22.5,-294.67 22.5,-294.67 22.5,-290.83 26.33,-287 30.17,-287 30.17,-287 286.83,-287 286.83,-287 290.67,-287 294.5,-290.83 294.5,-294.67 294.5,-294.67 294.5,-302.33 294.5,-302.33 294.5,-306.17 290.67,-310 286.83,-310"/>
<text text-anchor="middle" x="158.5" y="-294.8" font-family="Arial" font-size="14.00" fill="#cfffac">vanillaComponent/vanillaComponent.ssr.js</text>
</g>
</g>
</svg>
