<svg xmlns="http://www.w3.org/2000/svg" version="1.1" xmlns:xlink="http://www.w3.org/1999/xlink" xmlns:svgjs="http://svgjs.com/svgjs" width="1000" height="1000"><rect width="1000" height="1000" rx="500" ry="500" fill="#555555"></rect><g transform="matrix(0.390625,0,0,0.390625,105.77618432044983,99.62795776128769)"><svg xmlns="http://www.w3.org/2000/svg" version="1.1" xmlns:xlink="http://www.w3.org/1999/xlink" xmlns:svgjs="http://svgjs.com/svgjs" width="2048" height="2048"><svg xmlns:dc="http://purl.org/dc/elements/1.1/" xmlns:cc="http://creativecommons.org/ns#" xmlns:rdf="http://www.w3.org/1999/02/22-rdf-syntax-ns#" xmlns:svg="http://www.w3.org/2000/svg" xmlns="http://www.w3.org/2000/svg" version="1.1" viewBox="0 0 20480 20480" height="2048" width="2048" style="transform: none; transform-origin: 50% 50% 0px; cursor: move; max-height: 342.94px;" id="logo" class="logo">
  <defs id="defs940"></defs>
  <g transform="matrix(1.2987567,0,0,1.2987567,-2957.7116,-2745.7429)" style="fill:#ffffff" id="l1h9PtR8NuXo3iRkmxc72DJ">
    <g style="fill:#ffffff" id="g934">
      <path style="fill:#ffffff" d="m 11552,17680 c 9,-6 184,-43 390,-84 448,-89 440,-88 455,-78 22,14 -358,106 -621,152 -126,21 -254,27 -224,10 z" id="p18rGQd1GL"></path>
      <path style="fill:#ffffff" d="m 11100,17580 -105,-50 h -391 c -512,0 -825,-18 -1214,-70 -173,-23 -246,-27 -280,-16 -14,5 -54,30 -90,56 -88,64 -101,70 -158,70 -166,0 -866,-201 -1327,-380 -359,-140 -829,-371 -939,-462 -38,-31 -42,-46 -72,-303 -8,-77 -16,-144 -17,-150 -1,-5 3,-9 9,-8 6,1 135,63 285,136 370,182 687,320 1056,461 99,37 530,167 668,201 475,116 866,182 1330,225 425,39 960,43 1325,10 168,-15 502,-61 522,-71 10,-5 22,-26 27,-47 5,-20 21,-82 35,-137 14,-55 48,-167 76,-250 27,-82 50,-158 50,-167 0,-11 -11,-21 -27,-25 -16,-5 -197,-8 -403,-8 -421,0 -596,14 -850,66 -220,45 -316,58 -541,71 -314,18 -637,-5 -963,-68 -172,-33 -579,-133 -742,-183 -71,-21 -201,-59 -289,-85 -88,-25 -232,-69 -320,-97 -270,-85 -592,-173 -711,-193 -65,-11 -76,-11 -81,1 -8,19 5,161 23,257 9,43 13,80 11,82 -2,2 -113,-51 -248,-119 -197,-100 -245,-128 -250,-148 -11,-39 -10,-573 1,-741 29,-425 59,-634 150,-1048 21,-96 41,-191 44,-210 6,-34 6,-34 -15,10 -115,246 -228,839 -283,1495 -9,99 -21,224 -27,277 l -11,97 -32,-23 c -81,-61 -232,-76 -340,-36 -117,44 -202,162 -211,289 -2,34 -6,65 -9,69 -3,3 -6,1 -6,-5 0,-6 -8,-13 -18,-15 -25,-7 -259,-156 -367,-233 -49,-36 -124,-89 -165,-117 -41,-29 -117,-84 -168,-122 -51,-39 -124,-93 -161,-121 -73,-54 -146,-113 -225,-183 -62,-54 -86,-68 -86,-48 0,12 38,47 233,216 l 28,25 -30,58 c -17,32 -36,76 -43,99 -6,22 -18,42 -25,45 -15,6 -107,-66 -260,-205 -59,-53 -148,-133 -198,-176 -99,-87 -494,-466 -846,-813 -146,-145 -220,-224 -211,-228 7,-3 198,-5 423,-5 265,0 409,-4 409,-10 0,-5 -15,-31 -34,-57 -110,-155 -402,-720 -504,-978 -77,-196 -104,-275 -180,-525 -51,-166 -66,-226 -121,-485 -131,-615 -178,-1312 -131,-1940 19,-245 63,-572 111,-830 111,-593 233,-1012 441,-1520 72,-176 261,-567 342,-709 31,-54 56,-101 56,-103 0,-12 194,-297 226,-333 40,-45 49,-47 76,-23 35,32 21,-17 -18,-59 -69,-76 -92,-175 -60,-251 21,-50 92,-124 170,-176 121,-82 389,-209 664,-315 75,-29 227,-88 337,-131 110,-42 288,-106 395,-142 107,-36 196,-67 198,-68 1,-1 7,-40 13,-86 23,-191 172,-970 225,-1181 86,-344 224,-621 436,-873 140,-168 422,-427 583,-535 28,-19 52,-36 55,-40 3,-3 71,-48 152,-98 382,-239 766,-402 1353,-576 214,-63 503,-123 707,-146 46,-6 123,-15 171,-20 161,-19 469,-27 662,-19 418,18 701,63 1093,173 679,192 1226,484 1632,873 304,291 465,584 599,1090 106,396 274,1253 251,1277 -9,9 -152,-21 -530,-113 -113,-27 -248,-59 -301,-71 l -96,-22 -11,-147 c -33,-418 -102,-736 -226,-1036 -45,-108 -107,-228 -113,-221 -3,3 8,45 25,93 96,280 159,673 178,1112 l 7,164 -39,-7 c -35,-7 -285,-72 -674,-176 -210,-57 -668,-168 -865,-210 -55,-12 -118,-25 -140,-30 -71,-16 -127,-21 -121,-11 3,5 23,12 43,16 21,4 103,29 183,56 123,42 378,122 640,201 249,74 792,213 1005,257 108,22 550,116 730,156 61,13 173,35 250,49 255,47 286,56 322,92 27,26 30,66 25,347 -5,331 9,300 -120,268 -105,-27 -534,-115 -657,-136 -55,-10 -148,-26 -206,-36 -202,-35 -315,-49 -459,-59 -80,-6 -161,-15 -180,-20 -19,-6 -48,-10 -65,-9 -27,1 -26,2 15,15 25,8 69,17 99,21 30,3 62,14 71,23 18,18 141,44 385,81 334,50 601,102 905,175 109,26 245,82 460,189 255,126 316,159 438,231 68,41 126,74 128,74 13,0 131,90 160,123 34,37 35,42 29,85 -8,53 -121,425 -141,464 -16,31 -61,58 -96,58 -13,0 -86,-43 -163,-95 -571,-388 -703,-466 -914,-539 -148,-52 -145,-53 -136,42 4,42 10,122 14,177 l 6,101 51,69 c 128,173 175,295 214,560 15,95 15,349 1,458 -45,342 -204,678 -430,908 -96,97 -221,188 -317,230 -49,21 -237,79 -258,79 -6,0 -28,5 -48,11 -36,9 -38,12 -38,51 0,62 40,281 55,296 6,7 68,39 136,70 306,141 434,242 506,402 34,75 44,145 32,227 -12,88 -53,222 -90,295 -16,32 -29,65 -29,75 1,12 39,43 107,88 126,83 315,265 385,370 128,193 229,497 254,763 5,60 11,76 28,86 11,7 64,39 116,71 442,269 805,568 1306,1072 l 311,313 16,-108 c 21,-137 37,-321 37,-441 v -94 l 61,-98 c 207,-335 443,-916 534,-1314 92,-401 141,-759 160,-1165 11,-248 -24,-733 -76,-1045 -11,-66 -24,-147 -30,-180 -20,-121 -121,-561 -170,-738 -47,-171 -232,-803 -284,-967 -84,-268 -247,-764 -302,-922 -35,-104 -63,-193 -61,-200 7,-19 85,86 242,322 312,469 537,948 761,1625 79,239 111,349 175,605 246,982 301,1881 164,2679 -55,318 -157,740 -257,1061 -45,144 -216,599 -271,722 -115,257 -295,593 -408,761 -33,49 -58,91 -55,93 2,3 195,5 427,4 h 423 l -214,222 c -325,339 -743,755 -949,943 -102,94 -188,173 -191,177 -14,20 -73,57 -81,51 -12,-7 -78,-143 -78,-159 0,-6 43,-46 95,-89 90,-72 202,-192 191,-203 -3,-2 -58,42 -122,99 -301,270 -934,732 -1316,962 -260,157 -591,333 -783,416 -55,24 -122,54 -150,66 -243,109 -657,258 -905,326 -192,52 -184,53 -176,-18 15,-134 27,-456 17,-466 -20,-20 -31,39 -51,268 -11,127 -23,240 -26,252 -3,11 -16,24 -27,27 -294,85 -564,140 -937,191 -257,35 -264,34 -390,-25 z m 1151,-351 c 46,-16 67,-36 78,-74 14,-50 3,-83 -38,-110 -57,-39 -142,-30 -183,19 -42,50 -9,160 50,169 50,7 59,7 93,-4 z m 655,-407 c 5,-5 45,-21 89,-37 80,-28 401,-156 485,-193 173,-77 541,-267 664,-343 188,-117 334,-212 389,-252 176,-128 403,-308 534,-422 7,-5 88,-82 180,-170 244,-232 555,-574 631,-692 l 33,-52 -23,-34 c -34,-52 -239,-277 -316,-348 -281,-258 -649,-340 -939,-209 -298,135 -687,525 -963,963 -274,436 -444,764 -594,1147 -72,183 -196,586 -196,638 0,14 12,16 26,4 z m -2638,-267 c 80,-11 131,-26 230,-67 l 127,-53 h 599 599 l 63,-200 c 34,-110 90,-270 124,-355 105,-262 303,-656 442,-878 32,-51 58,-95 58,-98 0,-11 175,-273 243,-364 268,-359 636,-767 847,-940 131,-107 133,-109 119,-151 -35,-102 -145,-221 -254,-275 -69,-34 -84,-38 -153,-37 -95,0 -173,30 -264,100 -128,98 -567,554 -710,738 -22,28 -54,68 -71,89 -56,69 -359,469 -447,591 -247,342 -543,683 -860,993 -207,202 -365,296 -600,357 -218,56 -589,62 -895,14 -569,-90 -1123,-269 -1399,-453 -152,-101 -298,-279 -382,-463 -48,-105 -110,-292 -200,-606 -41,-144 -86,-298 -99,-342 -51,-169 -104,-343 -130,-425 -35,-112 -118,-330 -126,-330 -4,0 -17,53 -28,118 -12,64 -31,162 -41,217 -100,511 -142,1141 -125,1838 l 7,308 27,11 c 42,16 386,123 496,153 55,15 210,59 345,97 901,257 1473,387 1830,417 177,14 514,12 628,-4 z m -4578,-854 c 0,-92 92,-744 150,-1059 22,-118 58,-282 80,-365 22,-83 39,-154 38,-158 -7,-17 -347,230 -553,400 -88,73 -505,478 -505,491 0,9 517,522 570,566 43,35 110,92 175,147 17,15 33,27 38,27 4,0 7,-22 7,-49 z m 4602,-89 c 54,-27 395,-358 1092,-1061 243,-244 513,-509 601,-589 88,-80 165,-151 170,-157 13,-14 230,-195 359,-300 55,-44 118,-96 140,-116 43,-37 221,-173 296,-225 25,-17 74,-46 110,-65 l 65,-33 -60,-10 c -80,-12 -260,7 -351,38 -164,55 -448,215 -623,349 -210,160 -539,472 -861,816 -133,141 -303,299 -450,417 -268,215 -562,365 -770,394 -251,34 -587,-110 -935,-403 -116,-97 -333,-318 -467,-475 -126,-146 -308,-355 -322,-367 -7,-5 -32,-32 -56,-59 -61,-67 -62,-67 430,249 234,150 403,257 540,340 52,32 130,80 173,107 43,26 89,51 101,54 24,6 111,-14 206,-46 30,-10 111,-35 180,-56 167,-49 473,-172 518,-207 7,-5 15,-8 18,-5 5,6 -122,92 -226,153 -257,153 -490,336 -490,385 0,23 1,23 113,17 378,-19 988,-342 1411,-746 87,-83 323,-346 586,-652 281,-328 649,-663 1018,-928 314,-224 531,-361 752,-471 143,-71 170,-92 170,-132 0,-26 -42,-84 -95,-130 -21,-18 -119,-58 -190,-78 -174,-48 -475,-20 -651,60 -37,17 -68,29 -70,28 -1,-2 16,-32 38,-68 22,-36 85,-157 140,-270 55,-113 133,-272 174,-355 111,-228 135,-325 98,-397 -17,-33 -102,-128 -114,-128 -4,0 -23,33 -43,73 -38,80 -135,226 -289,437 -54,74 -120,164 -146,200 -45,63 -133,177 -450,585 -178,229 -295,359 -554,613 -297,292 -390,375 -628,558 -271,209 -706,461 -1040,604 -303,130 -415,155 -680,154 -171,-1 -212,-4 -329,-28 -395,-81 -720,-247 -977,-501 -128,-127 -186,-200 -434,-556 -63,-90 -147,-208 -187,-263 -41,-54 -81,-112 -89,-128 -49,-95 -4,81 69,267 30,77 110,268 177,425 252,589 296,721 445,1335 31,127 71,293 90,370 80,329 136,450 239,510 40,24 244,107 341,139 333,112 726,218 1140,307 183,39 255,47 405,46 108,-2 131,-5 172,-25 z m 2043,-129 c 10,-27 47,-109 84,-183 36,-74 67,-138 69,-142 2,-5 -1,-8 -6,-8 -5,0 -29,39 -52,88 -23,48 -48,98 -56,113 -13,25 -47,115 -59,157 -12,40 2,23 20,-25 z m -7338,-789 c 182,-171 342,-314 454,-405 24,-20 71,-59 104,-86 87,-71 272,-207 407,-297 l 116,-78 32,-102 c 40,-128 88,-209 185,-314 76,-81 303,-261 401,-318 27,-15 74,-44 104,-64 30,-20 96,-58 146,-84 50,-27 104,-58 120,-71 l 28,-22 -22,-99 c -57,-254 -66,-485 -27,-669 19,-87 103,-293 159,-386 l 35,-59 -43,-97 c -48,-108 -151,-329 -246,-528 -190,-398 -309,-682 -358,-855 -25,-88 -27,-109 -27,-294 v -199 l -70,-60 c -305,-259 -403,-372 -464,-537 -38,-105 -136,-525 -180,-775 -84,-470 -112,-795 -92,-1065 7,-90 13,-169 14,-175 3,-14 -44,-12 -543,24 -665,47 -633,46 -653,27 -21,-22 -22,-79 -1,-111 67,-103 633,-291 1064,-354 463,-68 696,-56 1495,79 594,100 825,120 1270,109 442,-12 856,-68 1325,-180 541,-130 666,-167 1110,-332 283,-105 360,-127 443,-127 84,0 363,27 742,71 149,17 295,29 327,27 61,-4 101,-25 75,-39 -17,-10 -618,-97 -957,-139 -161,-20 -270,-29 -298,-25 -25,4 -108,29 -186,57 -452,160 -577,202 -826,271 -735,207 -1397,300 -2005,283 -358,-10 -585,-40 -920,-121 -312,-76 -532,-114 -815,-141 -206,-19 -624,-14 -830,10 -657,79 -1069,226 -1165,417 -13,25 -29,68 -36,95 -7,27 -15,54 -19,59 -4,6 -11,32 -15,60 -8,55 -48,190 -150,510 -66,207 -92,294 -274,927 -125,436 -188,695 -235,973 -69,406 -105,971 -86,1365 24,501 57,749 154,1137 49,196 76,261 189,448 59,98 60,101 69,200 17,205 109,705 168,920 34,124 44,188 30,183 -11,-3 -154,-293 -216,-438 -20,-47 -47,-106 -60,-131 -30,-58 -114,-277 -171,-444 -78,-231 -202,-742 -248,-1025 -14,-85 -34,-207 -45,-270 -11,-63 -25,-153 -32,-199 -19,-136 -31,-56 -18,119 44,552 212,1244 429,1761 38,90 86,205 107,254 43,101 226,467 278,553 18,31 64,109 101,172 90,151 301,466 405,605 45,61 84,116 87,122 7,19 20,9 160,-123 z m 8303,-514 c 414,-379 776,-595 1098,-656 124,-23 280,-21 389,7 169,42 354,123 538,235 160,97 195,117 201,111 5,-5 -190,-145 -256,-184 -138,-82 -300,-150 -450,-191 -83,-22 -115,-26 -260,-26 -143,-1 -175,2 -243,22 -300,87 -637,289 -925,556 -108,99 -272,275 -272,290 0,6 15,-5 33,-24 18,-19 84,-82 147,-140 z m 3105,-625 c 135,-273 238,-524 363,-890 103,-300 195,-678 257,-1057 21,-132 45,-340 45,-402 0,-47 -13,1 -31,115 -38,237 -59,339 -168,789 -96,398 -303,987 -464,1320 -75,156 -246,481 -263,501 -18,21 -18,34 3,54 15,15 21,9 80,-92 35,-59 115,-211 178,-338 z m -6652,-201 c 555,-219 1204,-641 1597,-1038 57,-58 100,-106 95,-106 -13,0 -305,149 -416,213 -122,70 -414,250 -504,310 -137,92 -353,243 -416,290 -114,85 -240,181 -303,230 -65,52 -162,124 -193,144 -36,23 0,12 140,-43 z m -1023,-593 c 231,-53 468,-162 789,-363 277,-173 280,-176 1031,-741 193,-145 469,-342 738,-525 86,-60 189,-130 227,-157 161,-112 341,-239 350,-247 17,-15 -345,120 -461,172 -27,12 -152,73 -279,135 -554,271 -636,310 -740,357 -106,48 -542,208 -566,208 -6,0 40,-33 102,-73 116,-74 265,-186 368,-275 49,-44 121,-103 306,-253 197,-160 585,-532 671,-644 30,-38 79,-101 109,-140 30,-38 55,-74 55,-80 0,-5 -31,22 -68,60 -141,147 -418,362 -594,461 -46,25 -126,73 -179,104 -110,67 -326,176 -484,245 -60,26 -149,65 -198,86 -48,22 -90,39 -93,39 -3,0 -92,37 -197,82 -222,94 -335,138 -358,138 -24,0 -30,-26 -11,-43 9,-7 89,-44 177,-82 88,-37 239,-107 335,-156 166,-84 439,-235 450,-249 3,-4 16,-13 30,-20 14,-7 54,-32 90,-55 36,-23 135,-86 220,-140 85,-54 178,-113 205,-131 162,-104 437,-355 567,-517 43,-54 78,-102 78,-107 0,-5 -44,36 -97,92 -215,221 -449,394 -773,571 -36,19 -108,58 -160,87 -52,28 -122,63 -154,77 -33,13 -103,46 -155,73 -53,26 -114,53 -136,60 -22,7 -100,41 -173,76 -74,35 -136,64 -138,64 -3,0 -97,38 -209,85 -113,47 -206,85 -208,85 -2,0 -14,-8 -25,-19 l -22,-18 58,-31 c 31,-17 102,-48 157,-71 235,-94 578,-260 690,-333 28,-18 95,-60 150,-92 119,-71 337,-220 456,-313 253,-199 449,-401 587,-606 98,-147 94,-155 -10,-19 -84,108 -277,300 -408,405 -331,266 -939,581 -1520,788 -172,62 -186,65 -210,49 -13,-8 -12,-11 5,-24 11,-9 52,-28 90,-42 407,-157 689,-300 1009,-513 419,-278 662,-510 870,-831 68,-105 131,-263 73,-185 -130,177 -604,539 -1014,776 -270,156 -615,310 -913,408 -199,66 -718,180 -818,181 -12,0 -25,7 -29,15 -6,18 33,130 163,465 47,124 111,290 140,370 75,202 226,574 375,929 22,51 38,100 35,107 -3,8 -16,14 -29,14 -20,0 -35,-30 -151,-302 -205,-485 -346,-835 -456,-1138 -24,-67 -153,-386 -194,-483 -13,-29 -14,-38 -4,-42 7,-2 92,-18 188,-35 208,-36 356,-69 542,-121 124,-34 343,-106 393,-129 158,-71 239,-112 335,-167 477,-276 887,-635 1113,-978 90,-135 116,-198 197,-470 11,-36 37,-182 51,-285 55,-415 5,-979 -111,-1261 -108,-262 -243,-357 -540,-383 l -55,-4 37,13 c 20,8 82,37 137,65 126,65 185,126 257,266 111,213 151,411 161,794 4,180 2,252 -12,360 -34,272 -80,440 -165,611 -53,103 -149,210 -275,303 -104,77 -555,366 -571,366 -2,0 -68,35 -147,78 -178,97 -503,251 -702,332 -252,104 -502,171 -685,186 -192,14 -417,-52 -790,-235 -253,-124 -327,-136 -397,-66 -27,27 -33,41 -33,77 0,61 28,101 107,152 150,97 580,277 848,356 77,23 158,50 180,61 l 40,19 -100,-5 c -55,-2 -125,-9 -155,-15 -38,-8 -178,-9 -460,-4 -391,6 -408,5 -495,-15 -141,-34 -244,-90 -337,-184 -43,-44 -78,-76 -78,-72 0,5 14,30 31,57 60,93 202,202 313,239 98,33 206,40 564,37 316,-3 350,-1 379,15 54,29 80,66 134,187 29,63 65,144 82,180 16,36 65,151 107,255 120,294 198,481 226,543 25,54 93,212 274,642 43,102 81,201 85,221 7,37 7,37 -42,52 -153,50 -326,76 -544,84 -411,14 -586,-72 -746,-367 -78,-145 -193,-386 -223,-468 -13,-34 -25,-60 -27,-58 -11,10 22,129 64,236 25,63 77,179 115,258 156,319 293,428 595,476 54,9 109,18 123,20 14,3 111,3 215,1 141,-3 212,-9 275,-24 z m -33,-243 c 36,-17 42,-57 13,-83 -24,-22 -18,-22 -302,-1 -111,8 -248,18 -303,21 -162,10 -185,19 -124,50 57,30 114,34 401,31 213,-3 294,-8 315,-18 z m -327,-209 c 124,-6 233,-15 242,-20 21,-11 23,-37 6,-74 -10,-23 -16,-25 -82,-25 -39,0 -147,7 -241,15 -93,8 -239,19 -324,25 -84,5 -158,13 -163,16 -11,7 38,63 64,73 21,8 213,4 498,-10 z m -184,-224 c 166,-8 310,-18 319,-21 14,-6 16,-15 12,-47 -3,-22 -10,-44 -16,-50 -10,-10 -237,3 -581,34 -219,19 -220,19 -220,38 0,19 24,44 50,54 25,9 123,7 436,-8 z m -572,-191 c -25,-54 -72,-157 -104,-229 -32,-71 -69,-155 -83,-185 -14,-31 -35,-80 -47,-110 -12,-30 -28,-68 -35,-85 -13,-29 -114,-260 -140,-320 -8,-16 -22,-50 -33,-75 -11,-25 -32,-74 -47,-109 -15,-36 -46,-101 -69,-145 -23,-45 -48,-96 -54,-113 -12,-37 -32,-44 -32,-12 0,27 63,186 200,504 62,143 138,321 170,395 85,200 309,619 317,594 2,-6 -17,-55 -43,-110 z m 617,-44 c 180,-11 214,-19 203,-53 -4,-12 -14,-33 -22,-46 -18,-27 8,-28 -432,8 -135,12 -254,21 -265,21 -53,1 -57,47 -7,75 29,17 173,15 523,-5 z m -281,-225 c 311,-16 377,-22 386,-36 3,-5 -5,-30 -17,-56 l -22,-46 -121,6 c -475,26 -583,37 -593,63 -7,19 44,84 65,84 9,0 145,-7 302,-15 z m 186,-272 c 34,-3 68,-9 74,-13 17,-11 5,-53 -23,-83 -22,-24 -24,-24 -122,-16 -55,4 -187,13 -294,19 -287,16 -319,26 -274,89 l 16,24 281,-7 c 155,-4 309,-9 342,-13 z m -60,-263 c 24,-9 26,-14 21,-48 -6,-35 -41,-77 -56,-67 -6,3 -621,45 -669,45 -16,0 -9,31 15,69 l 16,24 323,-6 c 178,-4 335,-12 350,-17 z m -307,-250 c 199,-14 230,-30 179,-95 -20,-26 -24,-27 -87,-22 -36,2 -151,10 -256,16 -360,22 -335,18 -335,51 0,53 25,60 205,60 88,-1 220,-5 294,-10 z m 784,-976 c 144,-36 304,-101 512,-208 554,-285 1048,-628 1147,-798 56,-95 63,-129 62,-313 0,-135 -6,-210 -29,-360 -39,-255 -41,-500 -6,-675 52,-254 14,-386 -138,-489 -133,-91 -252,-116 -536,-115 -201,1 -312,7 -670,39 -962,85 -1638,109 -2431,86 -331,-10 -411,-4 -489,33 -30,15 -55,32 -55,37 0,5 17,9 38,9 21,0 162,16 313,35 474,59 604,68 1044,69 428,1 625,-11 1025,-63 203,-27 326,-44 440,-61 324,-49 473,-62 715,-64 208,-1 249,2 305,18 155,45 270,125 309,216 l 22,50 -32,168 c -48,252 -44,459 16,787 37,204 35,370 -5,478 -40,107 -177,226 -515,451 -322,214 -416,268 -726,416 -285,136 -457,174 -597,131 -109,-33 -217,-115 -361,-274 -185,-203 -333,-266 -601,-254 -222,10 -309,69 -335,230 -3,20 -3,37 1,37 4,0 30,-22 58,-48 66,-63 142,-92 258,-99 193,-13 291,32 476,217 190,189 275,257 368,296 123,51 263,57 417,18 z M 6938,9600 c 3,-39 -1,-47 -40,-87 -24,-24 -95,-83 -158,-131 -138,-104 -254,-213 -321,-301 -150,-198 -313,-677 -433,-1271 -25,-124 -49,-251 -52,-282 -4,-35 -11,-55 -17,-51 -20,12 5,331 44,573 40,248 82,418 166,680 97,298 192,455 373,620 137,123 398,306 425,297 5,-2 11,-23 13,-47 z m 1611,5 c 122,-39 517,-233 749,-368 l 52,-31 v -62 c 0,-73 -34,-508 -55,-714 -9,-80 -20,-188 -26,-240 -5,-52 -14,-142 -20,-200 -24,-251 -78,-756 -85,-789 -5,-22 -8,-23 -62,-16 -31,4 -115,18 -185,31 -243,45 -699,97 -1010,115 -198,11 -626,8 -861,-7 l -99,-7 6,54 c 3,30 13,101 21,159 8,58 25,175 36,260 37,270 113,675 192,1020 53,236 67,282 82,277 7,-3 78,-8 157,-12 307,-15 402,28 589,271 96,124 198,227 265,266 45,26 56,29 110,24 33,-3 98,-17 144,-31 z m 4260,-29 c -3,-3 -54,-12 -114,-21 -61,-9 -152,-25 -202,-35 -105,-23 -125,-25 -103,-10 19,13 165,58 205,63 43,6 219,8 214,3 z m -274,-260 c -119,-74 -176,-117 -284,-216 -113,-102 -121,-100 -25,7 79,88 154,146 268,205 114,59 133,61 41,4 z m 711,-47 c 82,-15 203,-63 266,-106 157,-106 294,-297 362,-507 87,-267 70,-619 -43,-889 -43,-102 -122,-230 -196,-318 -56,-67 -211,-199 -233,-199 -5,0 -15,-6 -21,-14 -11,-14 41,-107 167,-300 29,-43 52,-89 52,-102 0,-70 -73,-196 -132,-226 -46,-25 -150,-56 -209,-64 l -51,-7 35,69 c 75,151 91,334 43,482 -15,46 -33,85 -41,88 -7,3 -54,-8 -103,-25 -110,-37 -212,-47 -311,-32 -81,13 -229,70 -318,122 -238,141 -462,532 -513,893 -31,218 30,459 160,632 65,87 244,234 445,366 158,103 293,146 466,147 63,1 142,-4 175,-10 z m -1262,-91 c -11,-13 -37,-43 -58,-67 -35,-40 -86,-136 -86,-163 0,-6 35,23 79,65 43,42 85,77 92,77 7,0 2,-11 -13,-27 -96,-104 -203,-368 -244,-608 -24,-135 -14,-389 19,-510 35,-125 48,-160 116,-293 33,-64 94,-186 136,-271 41,-84 92,-179 112,-210 51,-78 187,-209 263,-253 36,-21 57,-38 47,-38 -26,0 -253,78 -333,115 -292,133 -513,477 -574,893 -22,154 -27,400 -9,529 23,172 84,361 155,483 46,79 137,175 228,242 86,63 100,70 70,36 z M 6556,9040 c -3,-23 -31,-132 -61,-243 -126,-459 -193,-837 -235,-1322 -15,-174 -17,-185 -41,-185 -11,0 -22,7 -26,15 -14,37 47,715 72,795 3,8 14,67 25,130 27,149 99,436 145,577 33,104 109,273 122,273 3,0 3,-18 -1,-40 z m 5399,-401 c -34,-189 -47,-333 -40,-444 6,-91 36,-292 61,-404 6,-24 4,-23 -19,10 -29,40 -69,158 -92,265 -17,82 -19,267 -4,367 12,78 94,306 105,294 2,-2 -3,-41 -11,-88 z m 3058,-1190 c 35,-19 55,-51 68,-106 22,-95 -14,-160 -103,-184 -57,-15 -93,-3 -132,42 -38,45 -51,98 -36,149 10,37 53,87 85,100 29,13 93,12 118,-1 z m -2705,-263 c 55,-56 74,-80 52,-66 -50,33 -127,108 -161,157 -36,51 -38,69 -3,28 14,-16 64,-70 112,-119 z m 1717,-342 c 19,-8 45,-55 45,-84 0,-81 -137,-119 -156,-43 -8,32 1,100 16,118 13,15 65,20 95,9 z M 7640,6515 c 0,-13 -226,-152 -335,-206 -289,-142 -715,-239 -1047,-239 -257,0 -410,25 -663,107 -159,52 -232,83 -160,69 89,-17 394,-26 580,-16 397,19 700,69 1094,180 257,72 531,126 531,105 z m 6171,-142 c 6,-16 13,-93 16,-173 l 6,-145 -44,-19 c -102,-43 -257,-71 -288,-51 -25,15 -41,77 -48,182 -6,112 -21,185 -22,108 -1,-79 17,-235 30,-264 8,-17 26,-36 41,-42 57,-23 52,-36 -14,-35 -53,1 -63,4 -80,27 -20,27 -37,152 -38,280 0,78 2,79 97,84 l 61,3 4,-129 c 2,-102 6,-132 18,-140 17,-11 143,-4 203,12 l 37,10 -1,87 c 0,48 -6,107 -12,132 -12,44 -13,45 -57,50 l -45,5 55,21 c 72,28 69,28 81,-3 z M 9055,6255 c 91,-16 270,-63 394,-102 l 85,-27 -105,-18 c -100,-17 -330,-50 -729,-104 -102,-13 -301,-43 -442,-65 -261,-40 -621,-87 -848,-111 -188,-19 -677,-17 -814,4 -59,9 -111,19 -114,22 -3,3 46,6 109,6 210,0 563,36 804,81 206,39 551,118 871,200 525,134 612,147 789,114 z m 3869,-34 c 33,-36 49,-338 20,-379 -19,-27 -71,-55 -90,-48 -7,3 -64,-2 -126,-10 -142,-20 -163,-20 -183,-4 -13,11 -15,39 -13,193 l 3,181 33,19 c 36,21 233,65 298,66 28,1 46,-5 58,-18 z m -412,-251 c 4,-224 -1,-216 136,-214 62,1 114,8 145,19 58,20 76,12 23,-10 -51,-21 -118,-35 -197,-42 -53,-4 -76,-1 -111,15 -56,24 -58,33 -58,236 0,156 5,176 41,176 15,0 17,-19 21,-180 z m -432,6 c 0,-6 -134,-34 -269,-56 -213,-35 -750,-134 -812,-150 l -35,-10 -12,-217 c -25,-448 -69,-768 -127,-928 l -25,-70 5,140 c 11,296 27,709 34,923 8,235 8,236 56,247 168,37 497,92 664,110 106,12 521,20 521,11 z m -1435,-126 c 7,-11 30,-379 41,-661 l 7,-177 -39,-25 c -98,-61 -278,-123 -504,-171 -114,-24 -335,-56 -390,-56 -16,0 -31,-4 -34,-8 -8,-13 28,-152 72,-282 155,-450 324,-730 622,-1030 120,-121 284,-253 441,-356 94,-61 311,-173 414,-214 155,-62 353,-117 432,-122 72,-4 -132,-16 -292,-17 -354,-2 -593,52 -905,204 -284,140 -454,258 -795,555 -219,191 -514,500 -725,760 -25,30 -55,66 -67,80 -11,14 -47,57 -78,95 -70,87 -171,180 -250,231 l -60,39 h -208 c -115,0 -210,-2 -212,-5 -6,-10 103,-269 168,-397 83,-164 231,-404 329,-533 101,-133 261,-320 329,-385 86,-81 294,-248 405,-322 132,-90 521,-300 634,-343 30,-11 71,-29 90,-39 99,-53 379,-140 550,-171 l 95,-17 -65,-11 c -304,-53 -592,-37 -835,48 -119,41 -426,190 -545,263 -270,168 -640,483 -878,749 -290,326 -526,676 -641,953 -23,55 -49,117 -58,137 -20,47 -25,49 -298,92 -285,45 -284,45 -296,30 -24,-29 35,-341 91,-484 33,-84 147,-297 201,-375 111,-160 369,-429 554,-576 227,-180 661,-427 948,-539 31,-12 57,-25 57,-29 0,-8 -185,13 -270,30 -119,24 -325,81 -418,115 -53,20 -177,76 -274,125 -479,238 -767,525 -927,924 -48,121 -86,249 -109,370 -33,173 -16,552 28,634 13,26 68,45 195,70 61,12 149,29 197,38 l 86,17 -108,46 c -175,75 -351,197 -563,388 l -58,53 73,-6 c 40,-3 111,-10 158,-15 259,-27 733,-20 1115,16 279,26 605,64 770,89 313,48 793,115 960,135 345,40 681,79 710,83 62,8 124,7 130,-3 z M 7490,3924 c 56,-79 232,-283 297,-344 223,-210 312,-284 478,-394 109,-72 114,-87 10,-30 -147,81 -381,270 -550,445 -115,120 -295,360 -268,359 4,0 19,-16 33,-36 z m 1495,-459 c 154,-132 411,-310 587,-405 98,-53 81,-57 -38,-8 -248,101 -540,325 -703,538 l -34,45 54,-51 c 30,-28 90,-81 134,-119 z" id="pzPVT8aXx"></path>
      <path style="fill:#ffffff" d="m 11110,13778 c 0,-7 21,-55 143,-329 147,-331 313,-562 585,-815 321,-299 690,-540 1005,-658 82,-31 344,-106 365,-106 4,0 -39,24 -94,54 -199,104 -559,377 -869,659 -216,197 -732,722 -864,880 -14,17 -55,63 -91,102 -36,39 -87,101 -114,136 -62,79 -66,85 -66,77 z" id="pIA2iHPKo"></path>
      <path style="fill:#ffffff" d="m 9370,11556 c 0,-9 131,-82 295,-165 426,-215 595,-314 988,-583 16,-11 49,-33 75,-51 100,-66 423,-328 494,-401 15,-15 28,-24 28,-19 0,14 -221,227 -329,317 -187,155 -440,334 -771,543 -147,93 -481,267 -647,337 -52,22 -133,35 -133,22 z" id="p8xHe9OF4"></path>
      <path style="fill:#ffffff" d="m 10060,10216 c 0,-2 48,-32 107,-66 136,-80 211,-131 353,-245 145,-116 312,-265 459,-409 l 114,-111 -105,125 c -170,202 -384,398 -578,527 -91,61 -350,193 -350,179 z" id="p14ZQnKqmP"></path>
      <path style="fill:#ffffff" d="m 12970,9249 c -165,-32 -396,-177 -499,-314 -66,-88 -144,-257 -177,-385 -8,-34 -13,-64 -10,-68 3,-3 6,0 6,7 0,7 18,58 41,114 96,240 221,395 423,525 78,51 185,99 261,117 57,15 23,17 -45,4 z" id="p1EnzVHwo8"></path>
      <path style="fill:#ffffff" d="m 13060,9143 c -92,-15 -225,-80 -323,-158 -109,-86 -235,-271 -296,-436 -73,-195 -88,-491 -36,-702 33,-129 109,-285 179,-365 66,-75 191,-150 293,-177 74,-19 239,-19 322,0 99,24 253,108 332,182 157,149 270,372 304,604 54,357 -56,704 -288,914 -74,67 -157,110 -252,130 -66,14 -178,18 -235,8 z m -188,-211 c 81,-122 111,-245 111,-452 0,-231 -54,-411 -180,-601 -25,-38 -50,-69 -55,-69 -13,0 -28,47 -28,91 0,23 27,113 65,219 35,99 70,210 76,245 18,107 7,354 -20,453 -13,46 -25,81 -27,80 -1,-2 2,-53 8,-113 14,-150 4,-388 -21,-497 -22,-98 -98,-298 -112,-298 -5,0 -7,10 -4,23 18,77 58,280 76,382 17,100 20,153 18,317 -3,193 -3,198 19,218 12,12 22,25 22,30 0,23 29,7 52,-28 z m 446,-164 c 174,-104 279,-292 289,-519 7,-138 -9,-228 -57,-326 -50,-104 -115,-170 -216,-219 -78,-38 -81,-39 -194,-39 -106,0 -119,2 -173,29 -67,33 -101,76 -93,119 3,15 32,74 65,130 42,72 70,136 95,218 48,161 59,253 52,444 -4,88 -3,165 1,171 34,46 146,42 231,-8 z m -676,-549 c -12,-129 -18,-159 -33,-159 -20,0 -5,293 18,365 5,15 9,7 17,-30 6,-34 6,-91 -2,-176 z" id="pMPY72hLi"></path>
      <path style="fill:#ffffff" d="m 12460,7454 c 20,-51 59,-111 90,-138 52,-43 152,-94 218,-111 59,-15 111,-16 67,0 -114,39 -212,104 -318,210 -55,56 -66,63 -57,39 z" id="p11FSeVCQH"></path>
      <path style="fill:#ffffff" d="m 12705,6157 c -95,-26 -94,-24 -87,-182 6,-135 10,-147 60,-140 20,2 76,9 123,16 47,6 91,14 98,19 11,6 12,36 4,149 -5,77 -12,143 -16,147 -16,17 -107,12 -182,-9 z" id="puqVF607Z"></path>
      <path style="fill:#ffffff" d="m 6069,16609 c -133,-20 -250,-149 -252,-278 -2,-116 74,-239 178,-287 149,-70 355,17 399,167 71,237 -90,434 -325,398 z m 127,-180 c 31,-15 48,-32 64,-64 73,-151 -144,-282 -248,-150 -54,68 -28,180 50,215 55,25 82,25 134,-1 z" id="p1APXArTGW"></path>
    </g>
  </g>
</svg></svg></g></svg>